/* XPM */
static char * close_active_xpm[] = {
"30 26 2 1",
" 	c #444444",
".	c #EEEEEE",
"                              ",
"                              ",
"                              ",
"                              ",
"                              ",
"                              ",
"                              ",
"                              ",
"                              ",
"           ..    ..           ",
"           ...  ...           ",
"            ......            ",
"             ....             ",
"             ....             ",
"            ......            ",
"           ...  ...           ",
"           ..    ..           ",
"                              ",
"                              ",
"                              ",
"                              ",
"                              ",
"                              ",
"                              ",
"                              ",
"                              "};
