/* XPM */
static char * hide_active_xpm[] = {
"30 26 3 1",
" 	c #444444",
".	c #484848",
"+	c #EEEEEE",
"   ........................   ",
"                              ",
"                              ",
"                              ",
"                              ",
"                              ",
"                              ",
"                              ",
"                              ",
"                              ",
"                              ",
"                              ",
"           ++++++++           ",
"           ++++++++           ",
"                              ",
"                              ",
"                              ",
"                              ",
"                              ",
"                              ",
"                              ",
"                              ",
"                              ",
"                              ",
"                              ",
"                              "};
