/* XPM */
static char * maximize_toggled_inactive_xpm[] = {
"30 26 2 1",
" 	c #444444",
".	c #888888",
"                              ",
"                              ",
"                              ",
"                              ",
"                              ",
"                              ",
"                              ",
"                              ",
"                              ",
"           ........           ",
"           ........           ",
"           ..    ..           ",
"           ..    ..           ",
"           ..    ..           ",
"           ..    ..           ",
"           ........           ",
"           ........           ",
"                              ",
"                              ",
"                              ",
"                              ",
"                              ",
"                              ",
"                              ",
"                              ",
"                              "};
